<?xml version="1.0" encoding="UTF-8" standalone="no"?>
<!-- Generator: Adobe Illustrator 16.0.0, SVG Export Plug-In . SVG Version: 6.00 Build 0)  -->

<svg
   version="1.1"
   id="Capa_1"
   x="0px"
   y="0px"
   width="483.252px"
   height="483.252px"
   viewBox="0 0 483.252 483.252"
   style="enable-background:new 0 0 483.252 483.252;"
   xml:space="preserve"
   sodipodi:docname="action-icon.svg"
   inkscape:export-filename="/home/tom/Desktop/myprojects/extensions/maximize-detached-tab/images/128.png"
   inkscape:export-xdpi="25.43"
   inkscape:export-ydpi="25.43"
   inkscape:version="1.1.2 (0a00cf5339, 2022-02-04, custom)"
   xmlns:inkscape="http://www.inkscape.org/namespaces/inkscape"
   xmlns:sodipodi="http://sodipodi.sourceforge.net/DTD/sodipodi-0.dtd"
   xmlns="http://www.w3.org/2000/svg"
   xmlns:svg="http://www.w3.org/2000/svg"><defs
   id="defs39" /><sodipodi:namedview
   id="namedview37"
   pagecolor="#ffffff"
   bordercolor="#666666"
   borderopacity="1.0"
   inkscape:pageshadow="2"
   inkscape:pageopacity="1"
   inkscape:pagecheckerboard="0"
   showgrid="false"
   inkscape:zoom="1.3036676"
   inkscape:cx="135.38727"
   inkscape:cy="241.62601"
   inkscape:window-width="1920"
   inkscape:window-height="1021"
   inkscape:window-x="1920"
   inkscape:window-y="0"
   inkscape:window-maximized="1"
   inkscape:current-layer="Capa_1" />
<g
   id="g4"
   transform="matrix(0.92168271,0,0,0.92168271,20.098131,18)">
	<path
   d="m 481.354,263.904 v 166.979 c 0,28.88 -23.507,52.369 -52.387,52.369 H 53.646 c -28.889,0 -52.393,-23.489 -52.393,-52.369 V 55.969 C 1.253,27.092 24.757,3.597 53.646,3.597 h 167.428 c -9.014,9.247 -15.004,21.45 -16.319,35.007 H 53.64 c -9.582,0 -17.377,7.79 -17.377,17.365 v 374.914 c 0,9.575 7.796,17.366 17.377,17.366 h 375.322 c 9.581,0 17.378,-7.791 17.378,-17.366 V 280.199 c 13.175,-1.264 25.404,-6.932 35.014,-16.295 z M 277.895,52.52 H 392.351 L 207.086,237.79 c -10.255,10.249 -10.255,26.882 0,37.132 10.252,10.255 26.879,10.255 37.131,0.006 L 429.482,89.657 v 114.462 c 0,14.502 11.756,26.256 26.261,26.256 7.247,0 13.813,-2.929 18.566,-7.687 4.752,-4.764 7.689,-11.319 7.689,-18.569 V 26.256 C 481.999,11.754 470.249,0 455.743,0 H 277.895 c -14.499,0 -26.256,11.754 -26.256,26.262 -0.006,14.502 11.757,26.258 26.256,26.258 z"
   id="path2" />
</g>
<g
   id="g6">
</g>
<g
   id="g8">
</g>
<g
   id="g10">
</g>
<g
   id="g12">
</g>
<g
   id="g14">
</g>
<g
   id="g16">
</g>
<g
   id="g18">
</g>
<g
   id="g20">
</g>
<g
   id="g22">
</g>
<g
   id="g24">
</g>
<g
   id="g26">
</g>
<g
   id="g28">
</g>
<g
   id="g30">
</g>
<g
   id="g32">
</g>
<g
   id="g34">
</g>
</svg>
