<?xml version="1.0" encoding="UTF-8" standalone="no"?>
<!-- Created with Inkscape (http://www.inkscape.org/) -->

<svg
   width="1280"
   height="800"
   viewBox="0 0 1280 800"
   version="1.1"
   id="svg5"
   inkscape:version="1.1.2 (0a00cf5339, 2022-02-04, custom)"
   sodipodi:docname="store-banner.svg"
   xmlns:inkscape="http://www.inkscape.org/namespaces/inkscape"
   xmlns:sodipodi="http://sodipodi.sourceforge.net/DTD/sodipodi-0.dtd"
   xmlns="http://www.w3.org/2000/svg"
   xmlns:svg="http://www.w3.org/2000/svg">
  <sodipodi:namedview
     id="namedview7"
     pagecolor="#ffffff"
     bordercolor="#666666"
     borderopacity="1.0"
     inkscape:pageshadow="2"
     inkscape:pageopacity="1"
     inkscape:pagecheckerboard="0"
     inkscape:document-units="px"
     showgrid="false"
     units="px"
     width="1000px"
     scale-x="1"
     inkscape:zoom="0.63"
     inkscape:cx="499.20635"
     inkscape:cy="500"
     inkscape:window-width="1920"
     inkscape:window-height="1021"
     inkscape:window-x="0"
     inkscape:window-y="0"
     inkscape:window-maximized="1"
     inkscape:current-layer="layer1" />
  <defs
     id="defs2" />
  <g
     inkscape:label="Layer 1"
     inkscape:groupmode="layer"
     id="layer1">
    <text
       xml:space="preserve"
       style="font-style:normal;font-weight:normal;font-size:40px;line-height:1.25;font-family:sans-serif;fill:#000000;fill-opacity:1;stroke:none"
       x="163.20253"
       y="152.55505"
       id="text4429"><tspan
         sodipodi:role="line"
         id="tspan4427"
         x="163.20253"
         y="152.55505"
         style="font-style:normal;font-variant:normal;font-weight:bold;font-stretch:normal;font-size:80px;font-family:sans-serif;-inkscape-font-specification:'sans-serif, Bold';font-variant-ligatures:normal;font-variant-caps:normal;font-variant-numeric:normal;font-variant-east-asian:normal">Maximize Detached Tab</tspan></text>
    <g
       id="g11726"
       transform="translate(388.8199,222.53101)">
      <g
         id="g11672">
	<path
   d="m 481.354,263.904 v 166.979 c 0,28.88 -23.507,52.369 -52.387,52.369 H 53.646 c -28.889,0 -52.393,-23.489 -52.393,-52.369 V 55.969 C 1.253,27.092 24.757,3.597 53.646,3.597 h 167.428 c -9.014,9.247 -15.004,21.45 -16.319,35.007 H 53.64 c -9.582,0 -17.377,7.79 -17.377,17.365 v 374.914 c 0,9.575 7.796,17.366 17.377,17.366 h 375.322 c 9.581,0 17.378,-7.791 17.378,-17.366 V 280.199 c 13.175,-1.264 25.404,-6.932 35.014,-16.295 z M 277.895,52.52 H 392.351 L 207.086,237.79 c -10.255,10.249 -10.255,26.882 0,37.132 10.252,10.255 26.879,10.255 37.131,0.006 L 429.482,89.657 v 114.462 c 0,14.502 11.756,26.256 26.261,26.256 7.247,0 13.813,-2.929 18.566,-7.687 4.752,-4.764 7.689,-11.319 7.689,-18.569 V 26.256 C 481.999,11.754 470.249,0 455.743,0 H 277.895 c -14.499,0 -26.256,11.754 -26.256,26.262 -0.006,14.502 11.757,26.258 26.256,26.258 z"
   id="path11670" />

</g>
      <g
         id="g11674">
</g>
      <g
         id="g11676">
</g>
      <g
         id="g11678">
</g>
      <g
         id="g11680">
</g>
      <g
         id="g11682">
</g>
      <g
         id="g11684">
</g>
      <g
         id="g11686">
</g>
      <g
         id="g11688">
</g>
      <g
         id="g11690">
</g>
      <g
         id="g11692">
</g>
      <g
         id="g11694">
</g>
      <g
         id="g11696">
</g>
      <g
         id="g11698">
</g>
      <g
         id="g11700">
</g>
      <g
         id="g11702">
</g>
    </g>
  </g>
</svg>
